<svg width="20" height="20" viewBox="0 0 20 20" fill="none" xmlns="http://www.w3.org/2000/svg">
<path d="M19.6667 19.3333H17.6667V8.33333C17.6667 8.14925 17.5174 8 17.3333 8H12.6667V0.333333C12.6667 0.14925 12.5174 0 12.3333 0H3.66667C3.48258 0 3.33333 0.14925 3.33333 0.333333V19.3333H0.333333C0.14925 19.3333 0 19.4826 0 19.6667C0 19.8507 0.14925 20 0.333333 20H19.6667C19.8507 20 20 19.8507 20 19.6667C20 19.4826 19.8507 19.3333 19.6667 19.3333ZM7 19.3333H5.66667V16.3333C5.66667 16.1493 5.81592 16 6 16H6.66667C6.85075 16 7 16.1493 7 16.3333V19.3333ZM8.33333 8.33333V19.3333H7.66667V16.3333C7.66667 15.781 7.21896 15.3333 6.66667 15.3333H6C5.44771 15.3333 5 15.781 5 16.3333V19.3333H4V0.666667H12V8H8.66667C8.48258 8 8.33333 8.14925 8.33333 8.33333ZM17 19.3333H9V8.66667H17V19.3333Z" fill="#4F4F4F"/>
<path d="M10.6667 4.66669H8.66668C8.48259 4.66669 8.33334 4.81594 8.33334 5.00002V7.00002C8.33334 7.1841 8.48259 7.33335 8.66668 7.33335H10.6667C10.8508 7.33335 11 7.1841 11 7.00002V5.00002C11 4.81594 10.8508 4.66669 10.6667 4.66669ZM10.3333 6.66669H9.00001V5.33335H10.3333V6.66669Z" fill="#4F4F4F"/>
<path d="M10.6667 1.33331H8.66668C8.48259 1.33331 8.33334 1.48256 8.33334 1.66665V3.66665C8.33334 3.85073 8.48259 3.99998 8.66668 3.99998H10.6667C10.8508 3.99998 11 3.85073 11 3.66665V1.66665C11 1.48256 10.8508 1.33331 10.6667 1.33331ZM10.3333 3.33331H9.00001V1.99998H10.3333V3.33331Z" fill="#4F4F4F"/>
<path d="M7.33333 4.66669H5.33333C5.14925 4.66669 5 4.81594 5 5.00002V7.00002C5 7.1841 5.14925 7.33335 5.33333 7.33335H7.33333C7.51742 7.33335 7.66667 7.1841 7.66667 7.00002V5.00002C7.66667 4.81594 7.51742 4.66669 7.33333 4.66669ZM7 6.66669H5.66667V5.33335H7V6.66669Z" fill="#4F4F4F"/>
<path d="M7.33333 1.33331H5.33333C5.14925 1.33331 5 1.48256 5 1.66665V3.66665C5 3.85073 5.14925 3.99998 5.33333 3.99998H7.33333C7.51742 3.99998 7.66667 3.85073 7.66667 3.66665V1.66665C7.66667 1.48256 7.51742 1.33331 7.33333 1.33331ZM7 3.33331H5.66667V1.99998H7V3.33331Z" fill="#4F4F4F"/>
<path d="M7.33333 8H5.33333C5.14925 8 5 8.14925 5 8.33333V10.3333C5 10.5174 5.14925 10.6667 5.33333 10.6667H7.33333C7.51742 10.6667 7.66667 10.5174 7.66667 10.3333V8.33333C7.66667 8.14925 7.51742 8 7.33333 8ZM7 10H5.66667V8.66667H7V10Z" fill="#4F4F4F"/>
<path d="M7.33333 11.3333H5.33333C5.14925 11.3333 5 11.4826 5 11.6666V13.6666C5 13.8507 5.14925 14 5.33333 14H7.33333C7.51742 14 7.66667 13.8507 7.66667 13.6666V11.6666C7.66667 11.4826 7.51742 11.3333 7.33333 11.3333ZM7 13.3333H5.66667V12H7V13.3333Z" fill="#4F4F4F"/>
<path d="M13.6666 15.3334H15.6666C15.8507 15.3334 16 15.1841 16 15V13C16 12.8159 15.8507 12.6667 15.6666 12.6667H13.6666C13.4826 12.6667 13.3333 12.8159 13.3333 13V15C13.3333 15.1841 13.4826 15.3334 13.6666 15.3334ZM14 13.3334H15.3333V14.6667H14V13.3334Z" fill="#4F4F4F"/>
<path d="M13.6666 12H15.6666C15.8507 12 16 11.8507 16 11.6666V9.66665C16 9.48256 15.8507 9.33331 15.6666 9.33331H13.6666C13.4826 9.33331 13.3333 9.48256 13.3333 9.66665V11.6666C13.3333 11.8507 13.4826 12 13.6666 12ZM14 9.99998H15.3333V11.3333H14V9.99998Z" fill="#4F4F4F"/>
<path d="M13.6666 18.6667H15.6666C15.8507 18.6667 16 18.5174 16 18.3333V16.3333C16 16.1492 15.8507 16 15.6666 16H13.6666C13.4826 16 13.3333 16.1492 13.3333 16.3333V18.3333C13.3333 18.5174 13.4826 18.6667 13.6666 18.6667ZM14 16.6667H15.3333V18H14V16.6667Z" fill="#4F4F4F"/>
<path d="M10.3333 15.3334H12.3333C12.5174 15.3334 12.6667 15.1841 12.6667 15V13C12.6667 12.8159 12.5174 12.6667 12.3333 12.6667H10.3333C10.1492 12.6667 10 12.8159 10 13V15C10 15.1841 10.1492 15.3334 10.3333 15.3334ZM10.6667 13.3334H12V14.6667H10.6667V13.3334Z" fill="#4F4F4F"/>
<path d="M10.3333 12H12.3333C12.5174 12 12.6667 11.8507 12.6667 11.6666V9.66665C12.6667 9.48256 12.5174 9.33331 12.3333 9.33331H10.3333C10.1492 9.33331 10 9.48256 10 9.66665V11.6666C10 11.8507 10.1492 12 10.3333 12ZM10.6667 9.99998H12V11.3333H10.6667V9.99998Z" fill="#4F4F4F"/>
<path d="M10.3333 18.6667H12.3333C12.5174 18.6667 12.6667 18.5174 12.6667 18.3333V16.3333C12.6667 16.1492 12.5174 16 12.3333 16H10.3333C10.1492 16 10 16.1492 10 16.3333V18.3333C10 18.5174 10.1492 18.6667 10.3333 18.6667ZM10.6667 16.6667H12V18H10.6667V16.6667Z" fill="#4F4F4F"/>
</svg>
