<svg width="16" height="16" viewBox="0 0 16 16" fill="none" xmlns="http://www.w3.org/2000/svg">
<path d="M8 0C3.589 0 0 3.589 0 8C0 12.411 3.589 16 8 16C12.411 16 16 12.411 16 8C16 3.589 12.411 0 8 0ZM8 15C4.14 15 1 11.86 1 8C1 4.14 4.14 1 8 1C11.86 1 15 4.14 15 8C15 11.86 11.86 15 8 15Z" fill="#4F4F4F"/>
<path d="M8 7.5C7.187 7.5 6.5 7.042 6.5 6.5C6.5 5.958 7.187 5.5 8 5.5C8.46 5.5 8.886 5.644 9.168 5.894C9.374 6.077 9.689 6.06 9.874 5.852C10.058 5.646 10.039 5.33 9.832 5.146C9.482 4.835 9.012 4.625 8.5 4.542V4C8.5 3.724 8.276 3.5 8 3.5C7.724 3.5 7.5 3.724 7.5 4V4.54C6.36 4.726 5.5 5.534 5.5 6.5C5.5 7.603 6.622 8.5 8 8.5C8.813 8.5 9.5 8.958 9.5 9.5C9.5 10.042 8.813 10.5 8 10.5C7.54 10.5 7.114 10.356 6.832 10.106C6.626 9.922 6.31 9.94 6.126 10.148C5.942 10.354 5.961 10.67 6.168 10.854C6.518 11.166 6.988 11.375 7.5 11.459V12C7.5 12.276 7.724 12.5 8 12.5C8.276 12.5 8.5 12.276 8.5 12V11.46C9.64 11.274 10.5 10.466 10.5 9.5C10.5 8.397 9.378 7.5 8 7.5Z" fill="#4F4F4F"/>
</svg>
