<svg width="16" height="20" viewBox="0 0 16 20" fill="none" xmlns="http://www.w3.org/2000/svg">
<path d="M7.99999 0.399994C4.02968 0.399994 0.799988 3.63006 0.799988 7.59999C0.799988 12.9117 7.44296 19.225 7.72579 19.4914C7.80311 19.5637 7.90155 19.6 7.99999 19.6C8.09843 19.6 8.19686 19.5637 8.27423 19.4914C8.55701 19.225 15.2 12.9117 15.2 7.59999C15.2 3.63006 11.9703 0.399994 7.99999 0.399994ZM7.99999 18.6402C6.74295 17.3852 1.59998 11.9812 1.59998 7.59999C1.59998 4.07109 4.47109 1.19998 7.99999 1.19998C11.5289 1.19998 14.4 4.07109 14.4 7.59999C14.4 11.9812 9.25703 17.3852 7.99999 18.6402Z" fill="#4F4F4F"/>
<path d="M7.99996 3.59998C5.79447 3.59998 3.99994 5.3945 3.99994 7.59999C3.99994 9.80548 5.79451 11.6 7.99996 11.6C10.2054 11.6 12 9.80548 12 7.59999C12 5.3945 10.2055 3.59998 7.99996 3.59998ZM7.99996 10.8C6.23509 10.8 4.79997 9.36444 4.79997 7.59999C4.79997 5.83554 6.23513 4.4 7.99996 4.4C9.76479 4.4 11.2 5.83554 11.2 7.59999C11.2 9.36444 9.76483 10.8 7.99996 10.8Z" fill="#4F4F4F"/>
</svg>
