<svg width="16" height="16" viewBox="0 0 16 16" fill="none" xmlns="http://www.w3.org/2000/svg">
<path d="M8 0C3.58887 0 0 3.58887 0 8C0 12.4111 3.58887 16 8 16C12.4111 16 16 12.4111 16 8C16 3.58887 12.4111 0 8 0ZM8 15.3333C5.80747 15.3333 3.842 14.3612 2.49703 12.8311C2.53537 12.8078 2.57403 12.7826 2.61197 12.763C3.88247 12.1107 5.84863 11.3333 8 11.3333C10.1514 11.3333 12.1175 12.1107 13.3877 12.7627C13.4258 12.7824 13.4646 12.8077 13.503 12.831C12.158 14.3612 10.1925 15.3333 8 15.3333ZM13.6927 12.1699C12.3568 11.4841 10.2845 10.6667 8 10.6667C5.7155 10.6667 3.64322 11.4841 2.30697 12.1702C2.22987 12.2099 2.15378 12.2556 2.07669 12.3057C1.19413 11.0949 0.666656 9.60962 0.666656 8C0.666656 3.95638 3.95638 0.666656 8 0.666656C12.0436 0.666656 15.3333 3.95638 15.3333 8C15.3333 9.60962 14.8059 11.0949 13.9233 12.3057C13.8462 12.2555 13.77 12.2097 13.6927 12.1699Z" fill="#4F4F4F"/>
<path d="M7.99994 2.33337C5.88635 2.33337 4.1666 4.05309 4.1666 6.16672C4.1666 8.28034 5.88635 10 7.99994 10C10.1135 10 11.8333 8.28031 11.8333 6.16669C11.8333 4.05306 10.1135 2.33337 7.99994 2.33337ZM7.99994 9.33337C6.25385 9.33337 4.83328 7.91281 4.83328 6.16672C4.83328 4.42062 6.25385 3.00003 7.99994 3.00003C9.74604 3.00003 11.1666 4.42059 11.1666 6.16669C11.1666 7.91278 9.74604 9.33337 7.99994 9.33337Z" fill="#4F4F4F"/>
</svg>
