<svg width="18" height="19" viewBox="0 0 18 19" fill="none" xmlns="http://www.w3.org/2000/svg">
<path d="M16.045 1.47217H1.95499C0.876998 1.47217 0 2.38848 0 3.5148V15.2921C0 16.4184 0.876998 17.3347 1.95499 17.3347H16.045C17.123 17.3347 18 16.4184 18 15.2921V3.5148C18 2.38848 17.123 1.47217 16.045 1.47217ZM17.4716 15.2921C17.4716 16.114 16.8317 16.7827 16.045 16.7827H1.95499C1.16834 16.7827 0.528376 16.114 0.528376 15.2921V3.5148C0.528376 2.69289 1.16834 2.02423 1.95499 2.02423H16.045C16.8317 2.02423 17.4716 2.69289 17.4716 3.5148V15.2921Z" fill="black"/>
<path d="M16.6086 4.4165H1.39139C1.24548 4.4165 1.1272 4.54006 1.1272 4.69253C1.1272 4.84501 1.24548 4.96856 1.39139 4.96856H16.6086C16.7545 4.96856 16.8728 4.84501 16.8728 4.69253C16.8728 4.54006 16.7545 4.4165 16.6086 4.4165Z" fill="black"/>
<path d="M1.95501 3.4964C2.02476 3.4964 2.09274 3.46695 2.14171 3.41543C2.19102 3.36427 2.2192 3.29324 2.2192 3.22037C2.2192 3.14783 2.19102 3.07646 2.14171 3.0253C2.09274 2.97378 2.02476 2.94434 1.95501 2.94434C1.88527 2.94434 1.81728 2.97378 1.76832 3.0253C1.71901 3.07646 1.69083 3.14783 1.69083 3.22037C1.69083 3.2932 1.71901 3.36427 1.76832 3.41543C1.81728 3.46695 1.88527 3.4964 1.95501 3.4964Z" fill="black"/>
<path d="M4.20941 3.4964C4.2788 3.4964 4.34714 3.46695 4.3961 3.41543C4.44542 3.36427 4.4736 3.29324 4.4736 3.22037C4.4736 3.14783 4.44542 3.07646 4.3961 3.0253C4.34714 2.97378 4.2788 2.94434 4.20941 2.94434C4.13966 2.94434 4.07168 2.97378 4.02272 3.0253C3.9734 3.07646 3.94522 3.14783 3.94522 3.22037C3.94522 3.2932 3.9734 3.36427 4.02272 3.41543C4.07168 3.46695 4.13966 3.4964 4.20941 3.4964Z" fill="black"/>
<path d="M3.08221 3.4964C3.15196 3.4964 3.21994 3.46695 3.2689 3.41543C3.31822 3.36427 3.3464 3.29324 3.3464 3.22037C3.3464 3.14783 3.31822 3.07646 3.2689 3.0253C3.21994 2.97378 3.15196 2.94434 3.08221 2.94434C3.01282 2.94434 2.94448 2.97378 2.89552 3.0253C2.8462 3.07646 2.81802 3.14783 2.81802 3.22037C2.81802 3.2932 2.8462 3.36427 2.89552 3.41543C2.94448 3.46695 3.01282 3.4964 3.08221 3.4964Z" fill="black"/>
<path d="M6.65063 7.73606C6.54746 7.6283 6.38018 7.6283 6.27704 7.73606L3.45903 10.6804C3.35586 10.7882 3.35586 10.963 3.45903 11.0708L6.27704 14.0151C6.32861 14.069 6.39624 14.0959 6.46384 14.0959C6.53143 14.0959 6.59906 14.069 6.65063 14.0151C6.75381 13.9073 6.75381 13.7325 6.65063 13.6247L4.01943 10.8756L6.65063 8.12648C6.75381 8.01865 6.75381 7.8439 6.65063 7.73606Z" fill="black"/>
<path d="M11.723 7.73606C11.6198 7.6283 11.4526 7.6283 11.3494 7.73606C11.2462 7.8439 11.2462 8.01865 11.3494 8.12645L13.9806 10.8756L11.3494 13.6247C11.2462 13.7325 11.2462 13.9073 11.3494 14.0151C11.401 14.0689 11.4686 14.0959 11.5362 14.0959C11.6038 14.0959 11.6714 14.0689 11.723 14.0151L14.541 11.0707C14.6442 10.9629 14.6442 10.7882 14.541 10.6804L11.723 7.73606Z" fill="black"/>
<path d="M10.2175 7.37742C10.0804 7.32545 9.92879 7.39928 9.87891 7.54248L7.62451 14.02C7.57463 14.1633 7.64536 14.3216 7.78249 14.3738C7.81229 14.3851 7.84276 14.3904 7.87277 14.3904C7.9807 14.3904 8.08205 14.3208 8.12107 14.2087L10.3755 7.73118C10.4253 7.5879 10.3546 7.42953 10.2175 7.37742Z" fill="black"/>
</svg>
