<svg width="20" height="21" viewBox="0 0 20 21" fill="none" xmlns="http://www.w3.org/2000/svg">
<path d="M10 6.96555C10.9167 6.96555 11.6667 6.18193 11.6667 5.22417C11.6667 4.26641 10.9167 3.48279 10 3.48279C9.08334 3.48279 8.33334 4.26641 8.33334 5.22417C8.33334 6.18193 9.08334 6.96555 10 6.96555ZM10 8.70693C9.08334 8.70693 8.33334 9.49055 8.33334 10.4483C8.33334 11.4061 9.08334 12.1897 10 12.1897C10.9167 12.1897 11.6667 11.4061 11.6667 10.4483C11.6667 9.49055 10.9167 8.70693 10 8.70693ZM10 13.9311C9.08334 13.9311 8.33334 14.7147 8.33334 15.6724C8.33334 16.6302 9.08334 17.4138 10 17.4138C10.9167 17.4138 11.6667 16.6302 11.6667 15.6724C11.6667 14.7147 10.9167 13.9311 10 13.9311Z" fill="#58636D"/>
</svg>
